<svg xmlns="http://www.w3.org/2000/svg" width="151.876" height="136.208" viewBox="0 0 151.876 136.208">
  <g id="cargo" transform="translate(-946.544 -3309.367)">
    <path id="Path_27" data-name="Path 27" d="M953.1,3407.085l7.311,6.7s6.918-7.566,9.073-7.639,9.231,7.639,9.231,7.639l5.084-4.448v-22.994s-16.978-22.139-16.562-26.2,54.891-20.749,54.891-20.749,53.521,17.417,54.735,20.749-16.409,26.2-16.409,26.2v22.994s3.927-3.2,5.755-3.029,8.153,7.478,8.153,7.478,8.856-7.648,11.064-7.478,12.305,10.825,12.305,10.825l-6.493,6.885s-4.777-6.108-6.676-6-8.217,7.319-10.2,7.164-7.5-7.135-9.3-7.164-7.669,6.915-9.7,7.164-7-7.136-8.927-7.164-8.307,7.174-10.145,7.164-7.472-7.313-9.1-7.164-7.551,7.279-10.12,7.164-7.381-7.2-9.426-7.164-7.717,7.383-9.925,7.164-7.3-7.13-9.245-7.164-8.15,7.254-9.759,7.164-7.518-7.1-9.231-7.164-6.789,7.439-9.073,7.164-13.187-11.4-13.187-11.4Z" fill="#66bb6a" stroke="#66bb6a" stroke-width="1"/>
    <path id="Path_28" data-name="Path 28" d="M992.9,3348.7v-9.3h10.176v-10.065h37.549V3339.4h10.235v14.1h9.89v-23.258h-9.89v-10.46h-18.185v-9.915H1012.7v9.915H992.9v9.555h-9.563V3354.7l9.563-1.2Z" fill="#66bb6a" stroke="#66bb6a" stroke-width="1"/>
    <path id="Path_29" data-name="Path 29" d="M953.616,3426.912s5.336,5.654,6.745,5.7,7.26-5.645,8.773-5.7,9.4,5.738,10.611,5.7,6.677-5.715,8.771-5.7,7.974,5.676,9.748,5.7,8.162-5.638,9.262-5.7,8.581,5.577,9.826,5.7,7.42-5.766,8.822-5.7,9.409,5.863,10.971,5.7,7.976-5.778,9.105-5.7,8.79,5.839,10.207,5.7,7.705-5.855,9.012-5.7,8.955,5.75,10.3,5.7,7.187-5.787,8.935-5.7,12.7,9.261,12.7,9.261l-6.536,7.427s-4.825-7.4-6.161-7.427-7.359,8.9-8.935,8.9-8.753-8.975-10.3-8.9-7.336,8.825-9.012,8.9-8.37-7.991-10.207-8.081-7.648,8.033-9.105,8.081-8.03-8.112-9.449-8.081-7.7,8.065-9.5,8.081-9.039-8.1-10.67-8.081-7.54,8.052-9.262,8.081-8.218-8.815-9.748-8.9-7.2,8.857-8.771,8.9-9.158-8.939-10.611-8.9-7.166,8.867-8.773,8.9-13.017-11.436-13.017-11.436Z" fill="#66bb6a" stroke="#66bb6a" stroke-width="1"/>
  </g>
</svg>
