<svg xmlns="http://www.w3.org/2000/svg" width="88" height="88.013" viewBox="0 0 88 88.013">
  <g id="food" transform="translate(-8 -3.987)">
    <path id="Path_24" data-name="Path 24" d="M87.56,64,67.66,75.79,60.08,71h9.53a5.5,5.5,0,0,0,0-11H53.24a15.19,15.19,0,0,0-5.51,1L35,66.78V65.5A1.5,1.5,0,0,0,33.5,64h-11A1.5,1.5,0,0,0,21,65.5v25A1.5,1.5,0,0,0,22.5,92h11A1.5,1.5,0,0,0,35,90.5V89H66.09a9.32,9.32,0,0,0,5.48-1.77L92.83,72a4.83,4.83,0,0,0-5.27-8ZM32,89H24V67h8ZM91.09,69.61,69.82,84.8A6.35,6.35,0,0,1,66.09,86H35V70.07L48.88,63.8a12.13,12.13,0,0,1,4.36-.8H69.61a2.5,2.5,0,0,1,0,5H54.9a1.5,1.5,0,0,0-.8,2.77l12.73,8a1.5,1.5,0,0,0,1.57,0L89.1,66.48a1.83,1.83,0,0,1,2,3.06Z" fill="#66bb6a"/>
    <path id="Path_25" data-name="Path 25" d="M94.5,52H91A38.55,38.55,0,0,0,57.35,14.82a6.5,6.5,0,1,0-9.69,0A38.54,38.54,0,0,0,14,52H9.5a1.5,1.5,0,0,0,0,3h85a1.5,1.5,0,0,0,0-3ZM52.5,7A3.5,3.5,0,1,1,49,10.5,3.5,3.5,0,0,1,52.5,7Zm0,10.5A35.53,35.53,0,0,1,88,52H17A35.53,35.53,0,0,1,52.5,17.5Z" fill="#66bb6a"/>
    <path id="Path_26" data-name="Path 26" d="M44.44,24.61a29.46,29.46,0,0,0-18.8,16.17A1.5,1.5,0,1,0,28.37,42,26.47,26.47,0,0,1,45.26,27.5a1.5,1.5,0,0,0-.82-2.89Z" fill="#66bb6a"/>
  </g>
</svg>
