<svg xmlns="http://www.w3.org/2000/svg" width="136.021" height="134.821" viewBox="0 0 136.021 134.821">
  <g id="grocery" transform="translate(-409.716 -3844.978)">
    <path id="Path_30" data-name="Path 30" d="M453.177,3895.508s-7.4-44.722,24.9-45.52,23.753,45.52,23.753,45.52" fill="none" stroke="#66bb6a" stroke-linecap="round" stroke-width="10"/>
    <path id="Path_31" data-name="Path 31" d="M444.3,3883.686s-20.3-2.748-22.793,0-7.434,61.716-7.434,61.716H541.838s-4.634-59.914-6.971-61.716-23.47,0-23.47,0,3.371,19.681-9.242,19.3-9.9-19.3-9.9-19.3h-28.21s2.251,20.2-10.932,19.3S444.3,3883.686,444.3,3883.686Z" fill="#66bb6a" stroke="#66bb6a" stroke-width="1"/>
    <path id="Path_32" data-name="Path 32" d="M414.07,3950.515s-5.715,25.551-3.091,27.671,132.185.668,133.883,0-2.344-27.671-2.344-27.671Z" fill="#66bb6a" stroke="#66bb6a" stroke-width="1"/>
  </g>
</svg>
