<svg xmlns="http://www.w3.org/2000/svg" width="101.34" height="123.123" viewBox="0 0 101.34 123.123">
  <path id="job" d="M50.386,123.123h0a62.944,62.944,0,0,1-11.111-4.25,68.028,68.028,0,0,1-10.3-6.155,55.7,55.7,0,0,1-10.263-9.589A82.132,82.132,0,0,1,5.433,80.187,75.968,75.968,0,0,1,.839,61.824C-.161,52.691,0,22.581,0,22.278L50.386,0l50.657,22.278,0,.056c.064,3.317.608,32.605,0,39.49A70,70,0,0,1,96.867,79.01a83.529,83.529,0,0,1-5.224,11.451,76.518,76.518,0,0,1-7.965,11.747,56.519,56.519,0,0,1-10.545,9.733,75.614,75.614,0,0,1-10.85,6.471,74.7,74.7,0,0,1-11.9,4.71ZM25.093,58.849l-8.124,8.24L39.14,89.5,84.427,45.4,76.565,36.52l-36.51,37.5L25.093,58.849Z" transform="translate(0.01)" fill="#66bb6a"/>
</svg>
