<svg xmlns="http://www.w3.org/2000/svg" width="138.169" height="129.534" viewBox="0 0 138.169 129.534">
  <path id="medic" d="M125.216,28.157H103.627V15.2A12.957,12.957,0,0,0,90.674,2.25H47.5A12.957,12.957,0,0,0,34.542,15.2V28.157H12.953A12.957,12.957,0,0,0,0,41.11v77.72a12.957,12.957,0,0,0,12.953,12.953H125.216a12.957,12.957,0,0,0,12.953-12.953V41.11A12.957,12.957,0,0,0,125.216,28.157Zm-73.4-8.636H86.356v8.636H51.813ZM94.991,86.447a2.165,2.165,0,0,1-2.159,2.159H77.72v15.112a2.165,2.165,0,0,1-2.159,2.159H62.608a2.165,2.165,0,0,1-2.159-2.159V88.606H45.337a2.165,2.165,0,0,1-2.159-2.159V73.494a2.165,2.165,0,0,1,2.159-2.159H60.449V56.222a2.165,2.165,0,0,1,2.159-2.159H75.561a2.165,2.165,0,0,1,2.159,2.159V71.335H92.832a2.165,2.165,0,0,1,2.159,2.159Z" transform="translate(0 -2.25)" fill="#66bb6a"/>
</svg>
