<svg xmlns="http://www.w3.org/2000/svg" width="77.993" height="77.993" viewBox="0 0 77.993 77.993">
  <path id="salon" d="M32.037,24.238a15.055,15.055,0,0,0,1.41-6.389,15.6,15.6,0,1,0-15.6,15.6,15.055,15.055,0,0,0,6.389-1.41l9.209,9.209-9.209,9.209a15.055,15.055,0,0,0-6.389-1.41,15.6,15.6,0,1,0,15.6,15.6,15.055,15.055,0,0,0-1.41-6.389l9.209-9.209,27.3,27.3h11.7v-3.9Zm-14.188,1.41a7.8,7.8,0,1,1,7.8-7.8A7.8,7.8,0,0,1,17.849,25.648Zm0,46.8a7.8,7.8,0,1,1,7.8-7.8A7.8,7.8,0,0,1,17.849,72.443ZM41.246,43.2a1.95,1.95,0,1,1,1.95-1.95A1.925,1.925,0,0,1,41.246,43.2ZM68.544,6.15l-23.4,23.4,7.8,7.8,27.3-27.3V6.15Z" transform="translate(-2.25 -2.25)" fill="#66bb6a"/>
</svg>
